<svg width="18" height="18" viewBox="0 0 18 18" fill="none" xmlns="http://www.w3.org/2000/svg">
<g clip-path="url(#clip0_1187_14149)">
<path fill-rule="evenodd" clip-rule="evenodd" d="M9.84624 3.50234C9.84624 3.0329 9.46568 2.65234 8.99624 2.65234C8.5268 2.65234 8.14624 3.0329 8.14624 3.50234V8.15234H3.49844C3.029 8.15234 2.64844 8.5329 2.64844 9.00234C2.64844 9.47179 3.029 9.85234 3.49844 9.85234H8.14624V14.5023C8.14624 14.9718 8.5268 15.3523 8.99624 15.3523C9.46568 15.3523 9.84624 14.9718 9.84624 14.5023V9.85234H14.4984C14.9679 9.85234 15.3484 9.47179 15.3484 9.00234C15.3484 8.5329 14.9679 8.15234 14.4984 8.15234H9.84624V3.50234Z" fill="#AEB5BC"/>
</g>
<defs>
<clipPath id="clip0_1187_14149">
<rect width="18" height="18" fill="white"/>
</clipPath>
</defs>
</svg>
