<svg width="25" height="24" viewBox="0 0 25 24" fill="none" xmlns="http://www.w3.org/2000/svg">
<g clip-path="url(#clip0_235_6272)">
<path d="M6.83331 4.25H7.58331H7.83331H17.8333H18.0833H18.8333H19.0833H20.3333C20.7311 4.25 21.1127 4.40803 21.394 4.68934C21.6753 4.97064 21.8333 5.35217 21.8333 5.75V6H21.5833H4.08331H3.83331V5.75C3.83331 5.35218 3.99135 4.97064 4.27265 4.68934C4.55396 4.40804 4.93549 4.25 5.33331 4.25H6.58331H6.83331ZM12.1164 12.0634L12.8333 12.8006L13.5502 12.0634C14.0553 11.5441 15.0767 11.687 15.4537 12.4233C15.6091 12.7268 15.6901 13.2378 15.3056 13.9963C14.9529 14.6922 14.2129 15.5735 12.8334 16.5669C11.4538 15.5732 10.7137 14.6918 10.361 13.9958C9.97655 13.2372 10.0575 12.7262 10.2129 12.4229C10.5898 11.687 11.6111 11.5439 12.1164 12.0634Z" fill="#AEB5BC" stroke="#AEB5BC" stroke-width="2"/>
</g>
<defs>
<clipPath id="clip0_235_6272">
<rect width="20" height="20" fill="white" transform="translate(2.83331 2)"/>
</clipPath>
</defs>
</svg>
