<svg width="25" height="24" viewBox="0 0 25 24" fill="none" xmlns="http://www.w3.org/2000/svg">
<path d="M5.07464 4C4.12659 4 3.21736 4.39133 2.54699 5.08789C1.87661 5.78445 1.5 6.7292 1.5 7.71429V16.2857C1.5 17.2708 1.87661 18.2155 2.54699 18.9121C3.21736 19.6087 4.12659 20 5.07464 20H13.3238C14.2719 20 15.1811 19.6087 15.8515 18.9121C16.5218 18.2155 16.8985 17.2708 16.8985 16.2857V15.9291L20.4819 18.5006C21.7578 19.4149 23.5 18.4663 23.5 16.8549V7.144C23.5 5.53257 21.7578 4.58171 20.4819 5.49829L16.8985 8.07086V7.71429C16.8985 6.7292 16.5218 5.78445 15.8515 5.08789C15.1811 4.39133 14.2719 4 13.3238 4H5.07464ZM16.8985 10.1531L21.419 6.90971C21.4603 6.88011 21.5086 6.8628 21.5587 6.85967C21.6087 6.85654 21.6587 6.8677 21.7031 6.89195C21.7475 6.9162 21.7847 6.95261 21.8106 6.99724C21.8365 7.04187 21.8502 7.09302 21.8502 7.14514V16.8537C21.8502 16.9058 21.8365 16.957 21.8106 17.0016C21.7847 17.0463 21.7475 17.0827 21.7031 17.1069C21.6587 17.1312 21.6087 17.1423 21.5587 17.1392C21.5086 17.1361 21.4603 17.1188 21.419 17.0891L16.8985 13.8457V10.1531ZM3.14983 7.71429C3.14983 6.61029 4.01215 5.71429 5.07464 5.71429H13.3238C14.3863 5.71429 15.2486 6.61029 15.2486 7.71429V16.2857C15.2486 16.8161 15.0458 17.3249 14.6849 17.6999C14.3239 18.075 13.8343 18.2857 13.3238 18.2857H5.07464C4.56415 18.2857 4.07457 18.075 3.7136 17.6999C3.35263 17.3249 3.14983 16.8161 3.14983 16.2857V7.71429Z" fill="#AEB5BC"/>
</svg>
