<svg width="25" height="24" viewBox="0 0 25 24" fill="none" xmlns="http://www.w3.org/2000/svg">
<path d="M1.5 7.75C1.5 6.75544 1.86222 5.80161 2.50699 5.09835C3.15175 4.39509 4.02624 4 4.93807 4H12.731C13.6429 4 14.5174 4.39509 15.1621 5.09835C15.8069 5.80161 16.1691 6.75544 16.1691 7.75V16.25C16.1691 17.2446 15.8069 18.1984 15.1621 18.9017C14.5174 19.6049 13.6429 20 12.731 20H4.93807C4.02624 20 3.15175 19.6049 2.50699 18.9017C1.86222 18.1984 1.5 17.2446 1.5 16.25V7.75ZM20.9842 18.683L17.0859 15.747V8.25L20.9842 5.314C22.0478 4.512 23.5 5.344 23.5 6.754V17.244C23.5 18.654 22.0487 19.484 20.9842 18.683Z" fill="#FF9100"/>
</svg>
