<svg width="25" height="24" viewBox="0 0 25 24" fill="none" xmlns="http://www.w3.org/2000/svg">
<g clip-path="url(#clip0_235_6634)">
<mask id="path-1-outside-1_235_6634" maskUnits="userSpaceOnUse" x="1.16666" y="1.5" width="22" height="22" fill="black">
<rect fill="white" x="1.16666" y="1.5" width="22" height="22"/>
<path fill-rule="evenodd" clip-rule="evenodd" d="M6.16666 3.5C4.5098 3.5 3.16666 4.84315 3.16666 6.5V15.5C3.16666 17.1569 4.5098 18.5 6.16666 18.5H9.16666L11.8131 21.1464C12.0084 21.3417 12.3249 21.3417 12.5202 21.1464L15.1667 18.5H18.1667C19.8235 18.5 21.1667 17.1569 21.1667 15.5V6.5C21.1667 4.84315 19.8235 3.5 18.1667 3.5H6.16666Z"/>
</mask>
<path fill-rule="evenodd" clip-rule="evenodd" d="M6.16666 3.5C4.5098 3.5 3.16666 4.84315 3.16666 6.5V15.5C3.16666 17.1569 4.5098 18.5 6.16666 18.5H9.16666L11.8131 21.1464C12.0084 21.3417 12.3249 21.3417 12.5202 21.1464L15.1667 18.5H18.1667C19.8235 18.5 21.1667 17.1569 21.1667 15.5V6.5C21.1667 4.84315 19.8235 3.5 18.1667 3.5H6.16666Z" fill="#FF9100"/>
<path d="M9.16666 18.5L10.5809 17.0858L9.99508 16.5H9.16666V18.5ZM11.8131 21.1464L13.2273 19.7322L13.2273 19.7322L11.8131 21.1464ZM12.5202 21.1464L11.106 19.7322L11.106 19.7322L12.5202 21.1464ZM15.1667 18.5V16.5H14.3382L13.7524 17.0858L15.1667 18.5ZM5.16666 6.5C5.16666 5.94772 5.61437 5.5 6.16666 5.5V1.5C3.40523 1.5 1.16666 3.73858 1.16666 6.5H5.16666ZM5.16666 15.5V6.5H1.16666V15.5H5.16666ZM6.16666 16.5C5.61437 16.5 5.16666 16.0523 5.16666 15.5H1.16666C1.16666 18.2614 3.40523 20.5 6.16666 20.5V16.5ZM9.16666 16.5H6.16666V20.5H9.16666V16.5ZM13.2273 19.7322L10.5809 17.0858L7.75244 19.9142L10.3989 22.5607L13.2273 19.7322ZM11.106 19.7322C11.6918 19.1464 12.6415 19.1464 13.2273 19.7322L10.3989 22.5607C11.3752 23.537 12.9581 23.537 13.9344 22.5607L11.106 19.7322ZM13.7524 17.0858L11.106 19.7322L13.9344 22.5607L16.5809 19.9142L13.7524 17.0858ZM18.1667 16.5H15.1667V20.5H18.1667V16.5ZM19.1667 15.5C19.1667 16.0523 18.7189 16.5 18.1667 16.5V20.5C20.9281 20.5 23.1667 18.2614 23.1667 15.5H19.1667ZM19.1667 6.5V15.5H23.1667V6.5H19.1667ZM18.1667 5.5C18.7189 5.5 19.1667 5.94772 19.1667 6.5H23.1667C23.1667 3.73858 20.9281 1.5 18.1667 1.5V5.5ZM6.16666 5.5H18.1667V1.5H6.16666V5.5Z" fill="#FF9100" mask="url(#path-1-outside-1_235_6634)"/>
<path d="M7.16666 14H14.1667" stroke="#F3F4F6" stroke-width="2" stroke-linecap="round" stroke-linejoin="round"/>
<path d="M7.16666 9H17.1667" stroke="#F3F4F6" stroke-width="2" stroke-linecap="round" stroke-linejoin="round"/>
</g>
<defs>
<clipPath id="clip0_235_6634">
<rect width="24" height="24" fill="white" transform="translate(0.166656)"/>
</clipPath>
</defs>
</svg>
