<svg width="25" height="24" viewBox="0 0 25 24" fill="none" xmlns="http://www.w3.org/2000/svg">
<path fill-rule="evenodd" clip-rule="evenodd" d="M3.08245 7.63263C2.08556 8.38889 1.5 9.56809 1.5 10.8194V19.4883C1.5 21.1451 2.84315 22.4883 4.5 22.4883H9.5V16.9987C9.5 15.8941 10.3954 14.9987 11.5 14.9987H13.5C14.6046 14.9987 15.5 15.8941 15.5 16.9987V22.4883H20.5C22.1569 22.4883 23.5 21.1451 23.5 19.4883V10.8194C23.5 9.56809 22.9144 8.38889 21.9175 7.63263L13.7088 1.40528C12.9941 0.863125 12.0059 0.863125 11.2912 1.40528L3.08245 7.63263Z" fill="#FF9100"/>
<mask id="mask0_235_6623" style="mask-type:alpha" maskUnits="userSpaceOnUse" x="8" y="12" width="9" height="11">
<rect x="8.5" y="12.4987" width="8" height="10" fill="#D9D9D9"/>
</mask>
<g mask="url(#mask0_235_6623)">
<path d="M9.5 17.4987C9.5 15.8418 10.8431 14.4987 12.5 14.4987C14.1569 14.4987 15.5 15.8418 15.5 17.4987V24.4987C15.5 26.1555 14.1569 27.4987 12.5 27.4987C10.8431 27.4987 9.5 26.1555 9.5 24.4987V17.4987Z" stroke="#FF9100" stroke-width="2" stroke-linejoin="round"/>
</g>
</svg>
