<svg width="20" height="20" viewBox="0 0 20 20" fill="none" xmlns="http://www.w3.org/2000/svg">
<path fill-rule="evenodd" clip-rule="evenodd" d="M6.59832 3.121C7.86459 3.42773 9.07306 4.29048 9.76698 5.39319C10.4609 4.29048 11.6694 3.42773 12.9356 3.121C14.3678 2.77407 15.9059 3.13606 16.841 4.69189C18.3308 7.17079 17.2072 10.1088 15.4671 12.4363C14.5893 13.6104 13.5374 14.655 12.5317 15.4477C11.5328 16.235 10.555 16.7932 9.8241 16.9648C9.7865 16.9737 9.74737 16.9737 9.70976 16.9648C8.97897 16.7931 8.00127 16.235 7.00246 15.4477C5.99679 14.655 4.94483 13.6104 4.06703 12.4363C2.32685 10.1088 1.20314 7.1708 2.69298 4.69189C3.62805 3.13606 5.16611 2.77407 6.59832 3.121Z" fill="#C7CED4"/>
</svg>
