<svg width="100%" height="100%" viewBox="0 0 240 240" fill="none" xmlns="http://www.w3.org/2000/svg">
<rect width="100%" height="100%" fill="#FDF2A0"/>
<path d="M120 0C53.7097 0 0 53.7097 0 120C0 186.29 53.7097 240 120 240C186.29 240 240 186.29 240 120C240 53.7097 186.29 0 120 0ZM120 46.4516C143.516 46.4516 162.581 65.5161 162.581 89.0323C162.581 112.548 143.516 131.613 120 131.613C96.4839 131.613 77.4194 112.548 77.4194 89.0323C77.4194 65.5161 96.4839 46.4516 120 46.4516ZM120 212.903C91.5968 212.903 66.1452 200.032 49.1129 179.903C58.2097 162.774 76.0161 150.968 96.7742 150.968C97.9355 150.968 99.0968 151.161 100.21 151.5C106.5 153.532 113.081 154.839 120 154.839C126.919 154.839 133.548 153.532 139.79 151.5C140.903 151.161 142.065 150.968 143.226 150.968C163.984 150.968 181.79 162.774 190.887 179.903C173.855 200.032 148.403 212.903 120 212.903Z" fill="#F8B62D"/>
</svg>
