<svg width="50" height="50" viewBox="0 0 50 50" fill="none" xmlns="http://www.w3.org/2000/svg">
<path d="M37.4379 17.1916C39.9225 19.6064 41.6218 22.6761 42.321 26.0124C43.0201 29.3486 42.6877 32.8016 41.3658 35.9348C40.0439 39.0679 37.7919 41.7404 34.8945 43.6143C31.997 45.4882 28.5844 46.4794 25.0881 46.4625C21.5918 46.4456 18.1688 45.4213 15.2521 43.5193C12.3353 41.6173 10.0558 38.9229 8.70176 35.7768C7.34771 32.6308 6.97995 29.1744 7.64498 25.8447C8.31002 22.515 9.97798 19.4617 12.4379 17.0707C13.2293 16.3015 14.3057 15.8725 15.4304 15.8779C16.5551 15.8834 17.636 16.3228 18.4352 17.0997C19.2344 17.8765 19.6866 18.927 19.6922 20.0202C19.6978 21.1134 19.2564 22.1596 18.465 22.9287C17.1853 24.1726 16.3176 25.761 15.9716 27.4932C15.6257 29.2253 15.817 31.0234 16.5214 32.66C17.2258 34.2967 18.4117 35.6984 19.929 36.6878C21.4464 37.6773 23.227 38.2101 25.0459 38.2189C26.8647 38.2277 28.6401 37.7121 30.1473 36.7372C31.6546 35.7624 32.8262 34.3721 33.5139 32.7422C34.2016 31.1123 34.3745 29.316 34.0108 27.5804C33.647 25.8448 32.763 24.2479 31.4705 22.9916C30.6713 22.2148 30.2191 21.1642 30.2135 20.0711C30.2079 18.9779 30.6494 17.9317 31.4407 17.1626C32.232 16.3934 33.3084 15.9644 34.4331 15.9698C35.5578 15.9752 36.6387 16.4147 37.4379 17.1916Z" fill="white"/>
<path d="M25.2305 15.9707C28.8209 15.9707 31.7315 13.1418 31.7315 9.65206C31.7315 6.16234 28.8209 3.33337 25.2305 3.33337C21.6401 3.33337 18.7295 6.16234 18.7295 9.65206C18.7295 13.1418 21.6401 15.9707 25.2305 15.9707Z" fill="#FFE100"/>
<path d="M25.2614 24.2125C21.2891 24.2179 17.477 22.6814 14.6625 19.9406C11.8479 17.1998 10.2609 13.4787 10.25 9.59461C10.25 8.66266 10.6286 7.76889 11.3026 7.1099C11.9765 6.45091 12.8906 6.08069 13.8437 6.08069C14.7968 6.08069 15.7109 6.45091 16.3848 7.1099C17.0588 7.76889 17.4374 8.66266 17.4374 9.59461C17.4374 11.6156 18.2584 13.5538 19.7199 14.9829C21.1814 16.412 23.1637 17.2148 25.2306 17.2148C27.2974 17.2148 29.2797 16.412 30.7412 14.9829C32.2027 13.5538 33.0237 11.6156 33.0237 9.59461C33.0237 8.66266 33.4024 7.76889 34.0763 7.1099C34.7503 6.45091 35.6643 6.08069 36.6174 6.08069C37.5705 6.08069 38.4846 6.45091 39.1585 7.1099C39.8325 7.76889 40.2111 8.66266 40.2111 9.59461C40.1976 13.4675 38.6182 17.1779 35.8175 19.9164C33.0168 22.655 29.2221 24.1993 25.2614 24.2125V24.2125Z" fill="white"/>
</svg>
