<svg width="30" height="30" viewBox="0 0 30 30" fill="none" xmlns="http://www.w3.org/2000/svg">
<path d="M22.4628 10.315C23.9535 11.7639 24.9731 13.6057 25.3926 15.6074C25.8121 17.6092 25.6126 19.681 24.8195 21.5609C24.0264 23.4407 22.6751 25.0442 20.9367 26.1686C19.1982 27.2929 17.1506 27.8876 15.0528 27.8775C12.9551 27.8674 10.9013 27.2528 9.15125 26.1116C7.4012 24.9704 6.03349 23.3538 5.22106 21.4661C4.40863 19.5785 4.18797 17.5046 4.58699 15.5068C4.98601 13.509 5.98679 11.677 7.46277 10.2424C7.93757 9.78094 8.58341 9.52352 9.25823 9.52678C9.93305 9.53004 10.5816 9.79373 11.0611 10.2598C11.5407 10.7259 11.8119 11.3562 11.8153 12.0121C11.8187 12.668 11.5538 13.2958 11.079 13.7573C10.3112 14.5036 9.79057 15.4566 9.58299 16.4959C9.37541 17.5352 9.4902 18.6141 9.91284 19.596C10.3355 20.578 11.047 21.419 11.9574 22.0127C12.8678 22.6064 13.9362 22.9261 15.0275 22.9314C16.1188 22.9367 17.184 22.6273 18.0884 22.0424C18.9928 21.4575 19.6957 20.6233 20.1083 19.6453C20.5209 18.6674 20.6247 17.5896 20.4065 16.5482C20.1882 15.5069 19.6578 14.5488 18.8823 13.795C18.4028 13.3289 18.1315 12.6986 18.1281 12.0427C18.1248 11.3868 18.3896 10.759 18.8644 10.2976C19.3392 9.83608 19.9851 9.57864 20.6599 9.5819C21.3347 9.58517 21.9832 9.84886 22.4628 10.315Z" fill="#FF9100"/>
<path d="M15.1384 9.58242C17.2926 9.58242 19.039 7.88504 19.039 5.79121C19.039 3.69738 17.2926 2 15.1384 2C12.9841 2 11.2378 3.69738 11.2378 5.79121C11.2378 7.88504 12.9841 9.58242 15.1384 9.58242Z" fill="#FFE100"/>
<path d="M15.1567 14.5275C12.7734 14.5308 10.4861 13.6089 8.79738 11.9644C7.10863 10.3199 6.15643 8.08724 6.1499 5.75679C6.1499 5.19762 6.37707 4.66136 6.78144 4.26596C7.18581 3.87057 7.73425 3.64844 8.30612 3.64844C8.87798 3.64844 9.42643 3.87057 9.8308 4.26596C10.2352 4.66136 10.4623 5.19762 10.4623 5.75679C10.4623 6.96939 10.955 8.13233 11.8319 8.98977C12.7088 9.84721 13.8981 10.3289 15.1382 10.3289C16.3784 10.3289 17.5677 9.84721 18.4446 8.98977C19.3215 8.13233 19.8141 6.96939 19.8141 5.75679C19.8141 5.19762 20.0413 4.66136 20.4457 4.26596C20.8501 3.87057 21.3985 3.64844 21.9704 3.64844C22.5422 3.64844 23.0907 3.87057 23.495 4.26596C23.8994 4.66136 24.1266 5.19762 24.1266 5.75679C24.1184 8.0805 23.1708 10.3068 21.4904 11.9499C19.81 13.593 17.5332 14.5196 15.1567 14.5275V14.5275Z" fill="#FF9100"/>
</svg>
