<svg width="20" height="20" viewBox="0 0 20 20" fill="none" xmlns="http://www.w3.org/2000/svg">
<g clip-path="url(#clip0_14_1098)">
<path d="M6.66655 15H2.49988C2.35789 14.9999 2.21827 14.9636 2.09427 14.8944C1.97028 14.8252 1.86602 14.7255 1.79139 14.6047C1.71675 14.4839 1.67423 14.346 1.66784 14.2042C1.66145 14.0623 1.69141 13.9212 1.75488 13.7942L3.33321 10.6358V8.33334C3.33321 6.56523 4.03559 4.86954 5.28584 3.61929C6.53608 2.36905 8.23177 1.66667 9.99988 1.66667C11.768 1.66667 13.4637 2.36905 14.7139 3.61929C15.9642 4.86954 16.6665 6.56523 16.6665 8.33334V10.6367L18.2449 13.7942C18.3084 13.9212 18.3383 14.0623 18.3319 14.2042C18.3255 14.346 18.283 14.4839 18.2084 14.6047C18.1337 14.7255 18.0295 14.8252 17.9055 14.8944C17.7815 14.9636 17.6419 14.9999 17.4999 15H13.3332M6.66655 15H13.3332M6.66655 15C6.66655 15.8841 7.01774 16.7319 7.64286 17.357C8.26798 17.9821 9.11583 18.3333 9.99988 18.3333C10.8839 18.3333 11.7318 17.9821 12.3569 17.357C12.982 16.7319 13.3332 15.8841 13.3332 15" stroke="black" stroke-width="1.5" stroke-linecap="round" stroke-linejoin="round"/>
</g>
<defs>
<clipPath id="clip0_14_1098">
<rect width="20" height="20" fill="white"/>
</clipPath>
</defs>
</svg>
