<svg width="26" height="26" viewBox="0 0 26 26" fill="none" xmlns="http://www.w3.org/2000/svg">
<path d="M13 13C15.8406 13 18.1429 10.6498 18.1429 7.75C18.1429 4.8502 15.8406 2.5 13 2.5C10.1594 2.5 7.85714 4.8502 7.85714 7.75C7.85714 10.6498 10.1594 13 13 13ZM16.6 14.3125H15.929C15.0371 14.7309 14.0446 14.9688 13 14.9688C11.9554 14.9688 10.967 14.7309 10.071 14.3125H9.4C6.41875 14.3125 4 16.7816 4 19.825V21.5312C4 22.6182 4.86384 23.5 5.92857 23.5H20.0714C21.1362 23.5 22 22.6182 22 21.5312V19.825C22 16.7816 19.5813 14.3125 16.6 14.3125Z" fill="#FF9100"/>
</svg>
